0
SECTION
2
HEADER
9
$INSUNITS
70
4
9
$ACADVER
1
AC1014
9
$HANDSEED
5
FFFF
0
ENDSEC
0
SECTION
2
TABLES
0
TABLE
2
VPORT
5
8
100
AcDbSymbolTable
0
ENDTAB
0
TABLE
2
LTYPE
5
5
100
AcDbSymbolTable
0
LTYPE
5
14
100
AcDbSymbolTableRecord
100
AcDbLinetypeTableRecord
2
BYBLOCK
70
0
0
LTYPE
5
15
100
AcDbSymbolTableRecord
100
AcDbLinetypeTableRecord
2
BYLAYER
70
0
0
ENDTAB
0
TABLE
2
LAYER
5
2
100
AcDbSymbolTable
70
2
0
LAYER
5
50
100
AcDbSymbolTableRecord
100
AcDbLayerTableRecord
2
0
70
0
6
CONTINUOUS
0
ENDTAB
0
TABLE
2
STYLE
5
3
100
AcDbSymbolTable
70
1
0
STYLE
5
11
100
AcDbSymbolTableRecord
100
AcDbTextStyleTableRecord
2
STANDARD
70
0
0
ENDTAB
0
TABLE
2
VIEW
5
6
100
AcDbSymbolTable
70
0
0
ENDTAB
0
TABLE
2
UCS
5
7
100
AcDbSymbolTable
70
0
0
ENDTAB
0
TABLE
2
APPID
5
9
100
AcDbSymbolTable
70
2
0
APPID
5
12
100
AcDbSymbolTableRecord
100
AcDbRegAppTableRecord
2
ACAD
70
0
0
ENDTAB
0
TABLE
2
DIMSTYLE
5
A
100
AcDbSymbolTable
70
1
0
ENDTAB
0
TABLE
2
BLOCK_RECORD
5
1
100
AcDbSymbolTable
70
1
0
BLOCK_RECORD
5
1F
100
AcDbSymbolTableRecord
100
AcDbBlockTableRecord
2
*MODEL_SPACE
0
BLOCK_RECORD
5
1B
100
AcDbSymbolTableRecord
100
AcDbBlockTableRecord
2
*PAPER_SPACE
0
ENDTAB
0
ENDSEC
0
SECTION
2
BLOCKS
0
BLOCK
5
20
100
AcDbEntity
100
AcDbBlockBegin
2
*MODEL_SPACE
0
ENDBLK
5
21
100
AcDbEntity
100
AcDbBlockEnd
0
BLOCK
5
1C
100
AcDbEntity
100
AcDbBlockBegin
2
*PAPER_SPACE
0
ENDBLK
5
1D
100
AcDbEntity
100
AcDbBlockEnd
0
ENDSEC
0
SECTION
2
ENTITIES
0
LWPOLYLINE
5
100
100
AcDbEntity
8
0
100
AcDbPolyline
90
4
70
1
43
0.0
10
-109.45153808596331
20
81.951461792263061
10
-109.45153808591027
20
455.04852784550462
10
-277.45153808590987
20
455.04852784552844
10
-277.45153808596302
20
81.951461792286864
0
CIRCLE
5
101
100
AcDbEntity
8
0
100
AcDbCircle
10
-271.45153808595751
20
120.95146179228607
30
0
40
2.5500000000000282
210
5.1422353883114131e-31
220
-7.3104105155293594e-44
230
1
0
CIRCLE
5
102
100
AcDbEntity
8
0
100
AcDbCircle
10
-271.45153808591488
20
422.04852784552776
30
0
40
2.5500000000000282
210
5.1422353883114131e-31
220
-7.3104105155293594e-44
230
1
0
LWPOLYLINE
5
103
100
AcDbEntity
8
0
100
AcDbPolyline
90
4
70
1
43
0.0
10
-170.95153808591192
20
443.04852784551338
10
-170.95153808591107
20
449.04852784551338
10
-140.9515380859111
20
449.04852784550911
10
-140.95153808591192
20
443.04852784550911
0
LWPOLYLINE
5
104
100
AcDbEntity
8
0
100
AcDbPolyline
90
4
70
1
43
0.0
10
-245.95153808591192
20
443.04852784552401
10
-245.95153808591107
20
449.04852784552406
10
-215.95153808591107
20
449.04852784551974
10
-215.95153808591192
20
443.04852784551974
0
CIRCLE
5
105
100
AcDbEntity
8
0
100
AcDbCircle
10
-193.45153808591164
20
446.04852784551662
30
0
40
2.5500000000000282
210
5.1422353883114131e-31
220
-7.3104105155293594e-44
230
1
0
LWPOLYLINE
5
106
100
AcDbEntity
8
0
100
AcDbPolyline
90
4
70
1
43
0.0
10
-268.45153808592613
20
344.2740278455276
10
-274.45153808591613
20
344.27402784552845
10
-274.45153808591112
20
379.27402784552839
10
-268.45153808592102
20
379.27402784552754
0
LWPOLYLINE
5
107
100
AcDbEntity
8
0
100
AcDbPolyline
90
4
70
1
43
0.0
10
-274.45153808593687
20
198.72596179228645
10
-268.45153808594688
20
198.7259617922856
10
-268.45153808595182
20
163.72596179228563
10
-274.45153808594171
20
163.72596179228648
0
LWPOLYLINE
5
108
100
AcDbEntity
8
0
100
AcDbPolyline
90
4
70
1
43
0.0
10
-135.1765380859726
20
84.951461792266727
10
-165.1765380859726
20
84.95146179227099
10
-165.17653808597174
20
90.951461792271004
10
-135.17653808597177
20
90.951461792266741
0
LWPOLYLINE
5
109
100
AcDbEntity
8
0
100
AcDbPolyline
90
4
70
1
43
0.0
10
-221.72653808598284
20
84.951461792279019
10
-251.72653808598284
20
84.951461792283283
10
-251.72653808598199
20
90.951461792283297
10
-221.72653808598199
20
90.951461792279034
0
LWPOLYLINE
5
110
100
AcDbEntity
8
0
100
AcDbPolyline
90
4
70
1
43
0.0
10
-112.45153808589606
20
344.27402784550537
10
-118.451538085896
20
344.27402784550623
10
-118.45153808589103
20
379.27402784550617
10
-112.45153808589095
20
379.27402784550537
0
LWPOLYLINE
5
111
100
AcDbEntity
8
0
100
AcDbPolyline
90
4
70
1
43
0.0
10
-112.45153808592164
20
163.72596179226343
10
-118.45153808592158
20
163.72596179226429
10
-118.45153808591661
20
198.72596179226423
10
-112.45153808591681
20
198.72596179226338
0
CIRCLE
5
112
100
AcDbEntity
8
0
100
AcDbCircle
10
-193.45153808594233
20
87.951461792275012
30
0
40
2.5499999999998786
210
2.0919453492695762e-30
220
-2.5243548967072675e-29
230
1
0
CIRCLE
5
113
100
AcDbEntity
8
0
100
AcDbCircle
10
-115.45153808590612
20
271.49999481888483
30
0
40
2.5499999999999483
210
5.1422353882755258e-31
220
-2.5243548967072451e-29
230
1
0
CIRCLE
5
114
100
AcDbEntity
8
0
100
AcDbCircle
10
-230.45153808593028
20
314.45146179227999
30
-1.7763568394002505e-14
40
1.2644999999999993
210
-1.0634982716051426e-30
220
1.5119123028987844e-43
230
1
0
CIRCLE
5
115
100
AcDbEntity
8
0
100
AcDbCircle
10
-254.95153808595148
20
163.45146179228374
30
0
40
1.2644999999999993
210
-1.0634982716051426e-30
220
1.5119123028987844e-43
230
1
0
CIRCLE
5
116
100
AcDbEntity
8
0
100
AcDbCircle
10
-254.95153808593017
20
314.45146179228351
30
0
40
1.2644999999999993
210
-1.0634982716051426e-30
220
1.5119123028987844e-43
230
1
0
CIRCLE
5
117
100
AcDbEntity
8
0
100
AcDbCircle
10
-230.4515380859516
20
163.45146179228021
30
-1.7763568394002505e-14
40
1.2644999999999993
210
-1.0634982716051426e-30
220
1.5119123028987844e-43
230
1
0
CIRCLE
5
118
100
AcDbEntity
8
0
100
AcDbCircle
10
-184.04619346266287
20
224.96508344731632
30
0
40
1.6359999999999992
210
5.1422353883473003e-31
220
2.5243548967072311e-29
230
1
0
CIRCLE
5
119
100
AcDbEntity
8
0
100
AcDbCircle
10
-135.78619346267203
20
301.16508344732398
30
0
40
1.6359999999999992
210
5.1422353883473003e-31
220
2.5243548967072311e-29
230
1
0
CIRCLE
5
120
100
AcDbEntity
8
0
100
AcDbCircle
10
-178.96619346266533
20
277.03508344731699
30
0
40
1.6359999999999992
210
5.1422353883473003e-31
220
2.5243548967072311e-29
230
1
0
CIRCLE
5
121
100
AcDbEntity
8
0
100
AcDbCircle
10
-151.0261934626655
20
277.03508344732154
30
0
40
1.6359999999999992
210
5.1422353883473003e-31
220
2.5243548967072311e-29
230
1
0
CIRCLE
5
122
100
AcDbEntity
8
0
100
AcDbCircle
10
-135.78619346266294
20
226.23508344732409
30
-1.7763568394002505e-14
40
1.6359999999999992
210
5.1422353883473003e-31
220
2.5243548967072311e-29
230
1
0
CIRCLE
5
123
100
AcDbEntity
8
0
100
AcDbCircle
10
-184.04619346267111
20
307.51508344731621
30
-1.7763568394002505e-14
40
1.6359999999999992
210
5.1422353883473003e-31
220
2.5243548967072311e-29
230
1
0
ENDSEC
0
SECTION
2
OBJECTS
0
DICTIONARY
5
C
100
AcDbDictionary
3
ACAD_GROUP
350
D
3
ACAD_MLINESTYLE
350
17
0
DICTIONARY
5
D
100
AcDbDictionary
0
DICTIONARY
5
1A
330
C
100
AcDbDictionary
0
DICTIONARY
5
17
100
AcDbDictionary
0
ENDSEC
0
EOF
