0
SECTION
2
HEADER
9
$INSUNITS
70
4
9
$ACADVER
1
AC1014
9
$HANDSEED
5
FFFF
0
ENDSEC
0
SECTION
2
TABLES
0
TABLE
2
VPORT
5
8
100
AcDbSymbolTable
0
ENDTAB
0
TABLE
2
LTYPE
5
5
100
AcDbSymbolTable
0
LTYPE
5
14
100
AcDbSymbolTableRecord
100
AcDbLinetypeTableRecord
2
BYBLOCK
70
0
0
LTYPE
5
15
100
AcDbSymbolTableRecord
100
AcDbLinetypeTableRecord
2
BYLAYER
70
0
0
ENDTAB
0
TABLE
2
LAYER
5
2
100
AcDbSymbolTable
70
2
0
LAYER
5
50
100
AcDbSymbolTableRecord
100
AcDbLayerTableRecord
2
0
70
0
6
CONTINUOUS
0
ENDTAB
0
TABLE
2
STYLE
5
3
100
AcDbSymbolTable
70
1
0
STYLE
5
11
100
AcDbSymbolTableRecord
100
AcDbTextStyleTableRecord
2
STANDARD
70
0
0
ENDTAB
0
TABLE
2
VIEW
5
6
100
AcDbSymbolTable
70
0
0
ENDTAB
0
TABLE
2
UCS
5
7
100
AcDbSymbolTable
70
0
0
ENDTAB
0
TABLE
2
APPID
5
9
100
AcDbSymbolTable
70
2
0
APPID
5
12
100
AcDbSymbolTableRecord
100
AcDbRegAppTableRecord
2
ACAD
70
0
0
ENDTAB
0
TABLE
2
DIMSTYLE
5
A
100
AcDbSymbolTable
70
1
0
ENDTAB
0
TABLE
2
BLOCK_RECORD
5
1
100
AcDbSymbolTable
70
1
0
BLOCK_RECORD
5
1F
100
AcDbSymbolTableRecord
100
AcDbBlockTableRecord
2
*MODEL_SPACE
0
BLOCK_RECORD
5
1B
100
AcDbSymbolTableRecord
100
AcDbBlockTableRecord
2
*PAPER_SPACE
0
ENDTAB
0
ENDSEC
0
SECTION
2
BLOCKS
0
BLOCK
5
20
100
AcDbEntity
100
AcDbBlockBegin
2
*MODEL_SPACE
0
ENDBLK
5
21
100
AcDbEntity
100
AcDbBlockEnd
0
BLOCK
5
1C
100
AcDbEntity
100
AcDbBlockBegin
2
*PAPER_SPACE
0
ENDBLK
5
1D
100
AcDbEntity
100
AcDbBlockEnd
0
ENDSEC
0
SECTION
2
ENTITIES
0
LWPOLYLINE
5
100
100
AcDbEntity
8
0
100
AcDbPolyline
90
86
70
1
43
0.0
10
-275.54999481888279
20
-76.000000954030313
10
-274.04999481888279
20
-76.000000954030597
10
-274.04999481888206
20
-72.000000954030597
10
-268.94999481888203
20
-72.000000954031577
10
-268.94999481888277
20
-76.000000954031563
10
-267.44999481888277
20
-76.000000954031862
10
-267.44999481888357
20
-80.100000954031856
10
-268.94999481888351
20
-80.100000954031557
10
-268.94999481888431
20
-84.000000954031563
10
-198.72596179226326
20
-84.00000095404485
10
-198.7259617922644
20
-90.00000095404485
10
-163.72596179226446
20
-90.000000954051472
10
-163.72596179226332
20
-84.000000954051472
10
-90.951461792263402
20
-84.000000954065342
10
-90.951461792259138
20
-61.500000954063054
10
-84.951461792259124
20
-61.500000954064191
10
-84.95146179225344
20
-31.50000095406417
10
-90.951461792253497
20
-31.500000954063037
10
-90.951461792249702
20
-11.550000954064174
10
-94.851461792249694
20
-11.550000954065336
10
-94.851461792249978
20
-13.050000954065336
10
-98.951461792249972
20
-13.05000095406456
10
-98.951461792249688
20
-11.550000954064558
10
-102.95146179224969
20
-11.550000954061904
10
-102.95146179224869
20
-6.4500009540619079
10
-98.951461792248693
20
-6.4500009540645635
10
-98.951461792248452
20
-4.9500009540645626
10
-94.851461792248443
20
-4.950000954065338
10
-94.851461792248728
20
-6.4500009540653425
10
-90.951461792248722
20
-6.4500009540641798
10
-90.951461792244942
20
13.499999045935915
10
-84.951461792244942
20
13.49999904593478
10
-84.951461792239257
20
43.499999045934771
10
-90.951461792239286
20
43.499999045935894
10
-90.951461792235023
20
65.999999045934786
10
-142.72596179223495
20
65.999999045944591
10
-142.72596179223379
20
71.999999045944605
10
-177.72596179223376
20
71.999999045951228
10
-177.72596179223495
20
65.999999045951213
10
-226.94999481885586
20
65.999999045960521
10
-226.9499948188566
20
62.099999045960331
10
-225.44999481885657
20
62.099999045960047
10
-225.44999481885736
20
57.999999045960053
10
-226.94999481885733
20
57.999999045960337
10
-226.9499948188581
20
53.999999045960543
10
-232.0499948188581
20
53.999999045961509
10
-232.04999481885736
20
57.999999045961289
10
-233.54999481885733
20
57.999999045961573
10
-233.54999481885656
20
62.099999045961582
10
-232.04999481885662
20
62.099999045961297
10
-232.04999481885582
20
65.999999045961488
10
-281.27402784547678
20
65.99999904597081
10
-281.27402784547564
20
71.999999045970839
10
-316.27402784547559
20
71.999999045977461
10
-316.27402784547672
20
65.999999045977432
10
-368.04852784547671
20
65.999999045987224
10
-377.95969004397921
20
56.088836847488523
10
-382.20233073109762
20
60.331477534608524
10
-399.88000026076509
20
42.653808004948274
10
-395.63735957364577
20
38.411167317828181
10
-403.74540555345737
20
30.303121338020208
10
-400.98768910682992
20
27.545404891392185
10
-399.92702893504963
20
28.606065063171783
10
-397.0278911321862
20
25.706927260306436
10
-398.08855130396546
20
24.646267088526841
10
-395.26012417921999
20
21.817839963780102
10
-398.86636876327265
20
18.211595379729392
10
-401.69479588801812
20
21.040022504476127
10
-402.75545605979835
20
19.979362332696528
10
-405.65459386266178
20
22.878500135561879
10
-404.59393369088252
20
23.939160307341574
10
-407.35165013750901
20
26.696876753969583
10
-415.45969611732153
20
18.588830774160435
10
-419.70233680443977
20
22.831471461280529
10
-437.38000633410707
20
5.1538019316202917
10
-433.13736564698888
20
0.91116124450008329
10
-443.04852784549075
20
-9.0000009539986365
10
-452.04852784549075
20
-9.0000009539969348
10
-452.04852784550496
20
-84.000000953997016
10
-379.27402784550515
20
-84.000000954010687
10
-379.27402784550634
20
-90.000000954010687
10
-344.27402784550645
20
-90.00000095401731
10
-344.2740278455052
20
-84.00000095401731
10
-274.04999481888422
20
-84.000000954030597
10
-274.04999481888353
20
-80.100000954030591
10
-275.54999481888353
20
-80.100000954030307
0
LWPOLYLINE
5
101
100
AcDbEntity
8
0
100
AcDbPolyline
90
4
70
1
43
0.0
10
-443.04852784549291
20
-20.250000953998605
10
-443.04852784549576
20
-35.250000953998601
10
-449.04852784549576
20
-35.250000953997464
10
-449.04852784549286
20
-20.250000953997471
0
LWPOLYLINE
5
102
100
AcDbEntity
8
0
100
AcDbPolyline
90
4
70
1
43
0.0
10
-443.04852784550002
20
-57.750000953998622
10
-443.04852784550286
20
-72.750000953998622
10
-449.04852784550286
20
-72.750000953997471
10
-449.04852784549996
20
-57.750000953997478
0
CIRCLE
5
103
100
AcDbEntity
8
0
100
AcDbCircle
10
-446.04852784549786
20
-46.500000953998054
30
0
40
2.5499999999999892
210
-9.7198351728559608e-44
220
-5.1358131138983842e-31
230
1
0
CIRCLE
5
104
100
AcDbEntity
8
0
100
AcDbCircle
10
-178.45146179224486
20
13.499999045944971
30
0
40
19.499999999999893
210
2.5243548967072285e-29
220
-5.1358131138887617e-31
230
1
0
CIRCLE
5
105
100
AcDbEntity
8
0
100
AcDbCircle
10
-298.45146179224469
20
13.49999904596768
30
0
40
19.499999999999893
210
2.5243548967072285e-29
220
-5.1358131138887617e-31
230
1
0
CIRCLE
5
106
100
AcDbEntity
8
0
100
AcDbCircle
10
-194.45146179224804
20
-2.5000009540518864
30
1.7763568394002505e-14
40
1.7249999999999894
210
-9.7198351726387069e-44
220
-5.1358131137835907e-31
230
1
0
CIRCLE
5
107
100
AcDbEntity
8
0
100
AcDbCircle
10
-194.45146179224199
20
29.499999045947995
30
0
40
1.7249999999999894
210
-9.7198351726387069e-44
220
-5.1358131137835907e-31
230
1
0
CIRCLE
5
108
100
AcDbEntity
8
0
100
AcDbCircle
10
-162.45146179224787
20
-2.5000009540579438
30
0
40
1.7249999999999894
210
-9.7198351726387069e-44
220
-5.1358131137835907e-31
230
1
0
CIRCLE
5
109
100
AcDbEntity
8
0
100
AcDbCircle
10
-314.45146179224156
20
29.499999045970707
30
-1.7763568394002505e-14
40
1.7249999999999894
210
-9.7198351726387069e-44
220
-5.1358131137835907e-31
230
1
0
CIRCLE
5
110
100
AcDbEntity
8
0
100
AcDbCircle
10
-282.45146179224167
20
29.49999904596465
30
0
40
1.7249999999999894
210
-9.7198351726387069e-44
220
-5.1358131137835907e-31
230
1
0
CIRCLE
5
111
100
AcDbEntity
8
0
100
AcDbCircle
10
-162.45146179224182
20
29.499999045941937
30
0
40
1.7249999999999894
210
-9.7198351726387069e-44
220
-5.1358131137835907e-31
230
1
0
CIRCLE
5
112
100
AcDbEntity
8
0
100
AcDbCircle
10
-282.45146179224776
20
-2.500000954035233
30
1.7763568394002505e-14
40
1.7249999999999894
210
-9.7198351726387069e-44
220
-5.1358131137835907e-31
230
1
0
CIRCLE
5
113
100
AcDbEntity
8
0
100
AcDbCircle
10
-314.45146179224758
20
-2.5000009540291757
30
0
40
1.7249999999999894
210
-9.7198351726387069e-44
220
-5.1358131137835907e-31
230
1
0
ENDSEC
0
SECTION
2
OBJECTS
0
DICTIONARY
5
C
100
AcDbDictionary
3
ACAD_GROUP
350
D
3
ACAD_MLINESTYLE
350
17
0
DICTIONARY
5
D
100
AcDbDictionary
0
DICTIONARY
5
1A
330
C
100
AcDbDictionary
0
DICTIONARY
5
17
100
AcDbDictionary
0
ENDSEC
0
EOF
