0
SECTION
2
HEADER
9
$INSUNITS
70
4
9
$ACADVER
1
AC1014
9
$HANDSEED
5
FFFF
0
ENDSEC
0
SECTION
2
TABLES
0
TABLE
2
VPORT
5
8
100
AcDbSymbolTable
0
ENDTAB
0
TABLE
2
LTYPE
5
5
100
AcDbSymbolTable
0
LTYPE
5
14
100
AcDbSymbolTableRecord
100
AcDbLinetypeTableRecord
2
BYBLOCK
70
0
0
LTYPE
5
15
100
AcDbSymbolTableRecord
100
AcDbLinetypeTableRecord
2
BYLAYER
70
0
0
ENDTAB
0
TABLE
2
LAYER
5
2
100
AcDbSymbolTable
70
2
0
LAYER
5
50
100
AcDbSymbolTableRecord
100
AcDbLayerTableRecord
2
0
70
0
6
CONTINUOUS
0
ENDTAB
0
TABLE
2
STYLE
5
3
100
AcDbSymbolTable
70
1
0
STYLE
5
11
100
AcDbSymbolTableRecord
100
AcDbTextStyleTableRecord
2
STANDARD
70
0
0
ENDTAB
0
TABLE
2
VIEW
5
6
100
AcDbSymbolTable
70
0
0
ENDTAB
0
TABLE
2
UCS
5
7
100
AcDbSymbolTable
70
0
0
ENDTAB
0
TABLE
2
APPID
5
9
100
AcDbSymbolTable
70
2
0
APPID
5
12
100
AcDbSymbolTableRecord
100
AcDbRegAppTableRecord
2
ACAD
70
0
0
ENDTAB
0
TABLE
2
DIMSTYLE
5
A
100
AcDbSymbolTable
70
1
0
ENDTAB
0
TABLE
2
BLOCK_RECORD
5
1
100
AcDbSymbolTable
70
1
0
BLOCK_RECORD
5
1F
100
AcDbSymbolTableRecord
100
AcDbBlockTableRecord
2
*MODEL_SPACE
0
BLOCK_RECORD
5
1B
100
AcDbSymbolTableRecord
100
AcDbBlockTableRecord
2
*PAPER_SPACE
0
ENDTAB
0
ENDSEC
0
SECTION
2
BLOCKS
0
BLOCK
5
20
100
AcDbEntity
100
AcDbBlockBegin
2
*MODEL_SPACE
0
ENDBLK
5
21
100
AcDbEntity
100
AcDbBlockEnd
0
BLOCK
5
1C
100
AcDbEntity
100
AcDbBlockBegin
2
*PAPER_SPACE
0
ENDBLK
5
1D
100
AcDbEntity
100
AcDbBlockEnd
0
ENDSEC
0
SECTION
2
ENTITIES
0
LWPOLYLINE
5
100
100
AcDbEntity
8
0
100
AcDbPolyline
90
44
70
1
43
0.0
10
190.90153808597734
20
57.999999045912418
10
189.40153808599746
20
57.999999045912382
10
189.40153808599825
20
62.099999045912398
10
190.90153808597819
20
62.099999045912419
10
190.90153808597893
20
65.999999045929215
10
165.17653808597856
20
65.999999045928888
10
165.1765380859797
20
71.999999045928405
10
135.17653808597973
20
71.999999045928391
10
135.17653808597856
20
65.999999045928675
10
109.45153808597867
20
65.999999045928362
10
109.45153808595023
20
-84.00000095407168
10
135.17653808598024
20
-84.000000954071496
10
135.17653808597913
20
-90.000000954071481
10
165.17653808597913
20
-90.000000954071169
10
165.17653808598027
20
-84.000000954071169
10
190.90153808598046
20
-84.000000954070856
10
190.9015380859812
20
-80.100000954070353
10
189.40153808598126
20
-80.100000954070069
10
189.40153808598205
20
-76.00000095407006
10
190.90153808598217
20
-76.000000954070345
10
190.90153808598291
20
-72.000000954070842
10
196.00153808598265
20
-72.000000954070813
10
196.00153808598191
20
-76.000000954071311
10
197.50153808598213
20
-76.000000954071595
10
197.50153808598134
20
-80.100000954071589
10
196.00153808598122
20
-80.100000954071305
10
196.00153808598048
20
-84.000000954070813
10
221.72653808598056
20
-84.000000954070586
10
221.72653808598938
20
-90.000000954070586
10
251.72653808598938
20
-90.000000954070259
10
251.72653808598056
20
-84.000000954070259
10
277.45153808595035
20
-84.000000954103555
10
277.45153808597877
20
65.999999045930082
10
251.72653808597886
20
65.999999045929897
10
251.72653808598
20
71.999999045928405
10
221.72653808598
20
71.999999045928391
10
221.72653808597886
20
65.999999045929584
10
196.00153808597867
20
65.999999045929258
10
196.00153808597793
20
62.099999045912455
10
197.50153808599805
20
62.099999045912455
10
197.50153808599725
20
57.999999045912467
10
196.00153808597724
20
57.999999045912453
10
196.00153808598645
20
53.99999904592925
10
190.90153808598643
20
53.999999045929229
0
LWPOLYLINE
5
101
100
AcDbEntity
8
0
100
AcDbPolyline
90
4
70
1
43
0.0
10
139.45153808596984
20
18.999999045937862
10
159.45153808596982
20
18.999999045934072
10
159.45153808596359
20
-14.000000954081209
10
139.45153808596362
20
-14.000000954077418
0
LWPOLYLINE
5
102
100
AcDbEntity
8
0
100
AcDbPolyline
90
4
70
1
43
0.0
10
159.45153808595421
20
-64.000000954081187
10
139.45153808595424
20
-64.000000954077393
10
139.45153808596046
20
-31.000000954062074
10
159.45153808596044
20
-31.000000954065872
0
CIRCLE
5
103
100
AcDbEntity
8
0
100
AcDbCircle
10
213.45153808598894
20
-38.939715688905032
30
0
40
2.2499999999999392
210
0
220
-0
230
1
0
CIRCLE
5
104
100
AcDbEntity
8
0
100
AcDbCircle
10
253.45153808598894
20
-38.939715688899909
30
0
40
2.2499999999999392
210
0
220
-0
230
1
0
LWPOLYLINE
5
105
100
AcDbEntity
8
0
100
AcDbPolyline
90
8
70
1
43
0.0
10
221.47553808598389
20
-11.939715688903959
10
245.42753808598405
20
-11.939715688900879
42
-0.41421356237300289
10
246.95153808598377
20
-13.463715688900685
10
246.95153808598434
20
-64.415715688900775
42
-0.41421356237318552
10
245.42753808598405
20
-65.939715688900975
10
221.4755380859836
20
-65.939715688904045
42
-0.41421356237294821
10
219.95153808598417
20
-64.415715688904243
10
219.9515380859836
20
-13.463715688904179
42
-0.41421356237320645
0
CIRCLE
5
106
100
AcDbEntity
8
0
100
AcDbCircle
10
271.45153808596461
20
-9.0000009540700336
30
0
40
2.5499999999999492
210
0
220
-0
230
1
0
CIRCLE
5
107
100
AcDbEntity
8
0
100
AcDbCircle
10
115.45153808596467
20
-9.0000009540699732
30
0
40
2.5499999999999492
210
0
220
-0
230
1
0
LWPOLYLINE
5
108
100
AcDbEntity
8
0
100
AcDbPolyline
90
4
70
1
43
0.0
10
112.45153808597451
20
43.499999045929471
10
118.4515380859645
20
43.499999045930629
10
118.45153808596876
20
13.499999045930643
10
112.45153808597877
20
13.499999045929485
0
LWPOLYLINE
5
109
100
AcDbEntity
8
0
100
AcDbPolyline
90
4
70
1
43
0.0
10
118.4515380859645
20
-61.500000954070721
10
112.45153808597451
20
-61.500000954069478
10
112.45153808598019
20
-31.500000954069446
10
118.45153808597018
20
-31.50000095407071
0
LWPOLYLINE
5
110
100
AcDbEntity
8
0
100
AcDbPolyline
90
4
70
1
43
0.0
10
268.45153808595882
20
13.499999045930622
10
268.4515380859645
20
43.499999045930622
10
274.4515380859545
20
43.499999045929478
10
274.45153808594881
20
13.499999045929481
0
LWPOLYLINE
5
111
100
AcDbEntity
8
0
100
AcDbPolyline
90
4
70
1
43
0.0
10
268.4515380859645
20
-61.500000954070742
10
268.45153808596024
20
-31.500000954070714
10
274.45153808595023
20
-31.500000954069453
10
274.4515380859545
20
-61.500000954069485
0
ENDSEC
0
SECTION
2
OBJECTS
0
DICTIONARY
5
C
100
AcDbDictionary
3
ACAD_GROUP
350
D
3
ACAD_MLINESTYLE
350
17
0
DICTIONARY
5
D
100
AcDbDictionary
0
DICTIONARY
5
1A
330
C
100
AcDbDictionary
0
DICTIONARY
5
17
100
AcDbDictionary
0
ENDSEC
0
EOF
