0
SECTION
2
HEADER
9
$INSUNITS
70
4
9
$ACADVER
1
AC1014
9
$HANDSEED
5
FFFF
0
ENDSEC
0
SECTION
2
TABLES
0
TABLE
2
VPORT
5
8
100
AcDbSymbolTable
0
ENDTAB
0
TABLE
2
LTYPE
5
5
100
AcDbSymbolTable
0
LTYPE
5
14
100
AcDbSymbolTableRecord
100
AcDbLinetypeTableRecord
2
BYBLOCK
70
0
0
LTYPE
5
15
100
AcDbSymbolTableRecord
100
AcDbLinetypeTableRecord
2
BYLAYER
70
0
0
ENDTAB
0
TABLE
2
LAYER
5
2
100
AcDbSymbolTable
70
2
0
LAYER
5
50
100
AcDbSymbolTableRecord
100
AcDbLayerTableRecord
2
0
70
0
6
CONTINUOUS
0
ENDTAB
0
TABLE
2
STYLE
5
3
100
AcDbSymbolTable
70
1
0
STYLE
5
11
100
AcDbSymbolTableRecord
100
AcDbTextStyleTableRecord
2
STANDARD
70
0
0
ENDTAB
0
TABLE
2
VIEW
5
6
100
AcDbSymbolTable
70
0
0
ENDTAB
0
TABLE
2
UCS
5
7
100
AcDbSymbolTable
70
0
0
ENDTAB
0
TABLE
2
APPID
5
9
100
AcDbSymbolTable
70
2
0
APPID
5
12
100
AcDbSymbolTableRecord
100
AcDbRegAppTableRecord
2
ACAD
70
0
0
ENDTAB
0
TABLE
2
DIMSTYLE
5
A
100
AcDbSymbolTable
70
1
0
ENDTAB
0
TABLE
2
BLOCK_RECORD
5
1
100
AcDbSymbolTable
70
1
0
BLOCK_RECORD
5
1F
100
AcDbSymbolTableRecord
100
AcDbBlockTableRecord
2
*MODEL_SPACE
0
BLOCK_RECORD
5
1B
100
AcDbSymbolTableRecord
100
AcDbBlockTableRecord
2
*PAPER_SPACE
0
ENDTAB
0
ENDSEC
0
SECTION
2
BLOCKS
0
BLOCK
5
20
100
AcDbEntity
100
AcDbBlockBegin
2
*MODEL_SPACE
0
ENDBLK
5
21
100
AcDbEntity
100
AcDbBlockEnd
0
BLOCK
5
1C
100
AcDbEntity
100
AcDbBlockBegin
2
*PAPER_SPACE
0
ENDBLK
5
1D
100
AcDbEntity
100
AcDbBlockEnd
0
ENDSEC
0
SECTION
2
ENTITIES
0
LWPOLYLINE
5
100
100
AcDbEntity
8
0
100
AcDbPolyline
90
94
70
1
43
0.0
10
125.00146179226266
20
-80.100000954058714
10
123.50146179226265
20
-80.100000954058999
10
123.5014617922634
20
-84.00000095405899
10
163.72596179226332
20
-84.000000954051359
10
163.72596179226448
20
-90.000000954051387
10
198.72596179226446
20
-90.000000954044751
10
198.72596179226332
20
-84.000000954044765
10
344.27402784550537
20
-84.00000095401721
10
344.27402784550651
20
-90.000000954017196
10
379.27402784550645
20
-90.000000954010574
10
379.27402784550532
20
-84.000000954010574
10
419.49852784550501
20
-84.000000954002957
10
419.49852784550438
20
-80.100000954002994
10
417.99852784550433
20
-80.100000954003264
10
417.99852784550353
20
-76.000000954003255
10
419.49852784550353
20
-76.000000954002985
10
419.49852784550274
20
-72.000000954002985
10
424.59852784550276
20
-72.000000954002019
10
424.59852784550355
20
-76.000000954002019
10
426.09852784550355
20
-76.000000954001734
10
426.09852784550435
20
-80.100000954001729
10
424.59852784550435
20
-80.100000954002013
10
424.59852784550503
20
-84.000000954002005
10
452.04852784550502
20
-84.000000953996818
10
452.04852784549075
20
-9.0000009539967429
10
443.04852784549087
20
-9.0000009539984411
10
433.13736564698701
20
0.91116124450157709
10
437.38000633410621
20
5.1538019316216772
10
419.70233680443891
20
22.831471461282035
10
415.45969611732062
20
18.588830774161934
10
376.92271794937028
20
57.125808942097507
10
374.16500150274328
20
54.368092495469497
10
375.22566167452334
20
53.307432323689781
10
372.32652387165905
20
50.408294520824448
10
371.26586369987899
20
51.468954692604044
10
368.43743657513329
20
48.640527567857319
10
364.83119199108131
20
52.246772151907912
10
367.65961911582701
20
55.075199276654658
10
366.59895894404701
20
56.135859448434353
10
369.49809674691124
20
59.0349972512997
10
370.5587569186913
20
57.974337079520105
10
373.3164733653183
20
60.732053526148142
10
368.04852784547671
20
65.999999045987437
10
316.27402784547678
20
65.999999045977631
10
316.27402784547559
20
71.999999045975926
10
281.27402784547564
20
71.999999045969304
10
281.27402784547684
20
65.999999045971009
10
232.04999481885585
20
65.999999045961701
10
232.04999481885659
20
62.099999045961681
10
233.54999481885656
20
62.099999045961965
10
233.54999481885739
20
57.999999045961985
10
232.04999481885739
20
57.999999045961701
10
232.0499948188581
20
53.999999045961701
10
226.94999481885813
20
53.999999045960728
10
226.94999481885736
20
57.999999045960742
10
225.44999481885736
20
57.999999045960458
10
225.44999481885657
20
62.099999045960445
10
226.94999481885657
20
62.099999045960729
10
226.94999481885586
20
65.999999045960735
10
177.7259617922349
20
65.999999045951412
10
177.72596179223382
20
71.999999045949721
10
142.72596179223385
20
71.999999045943085
10
142.72596179223495
20
65.999999045944776
10
90.951461792235023
20
65.999999045934985
10
90.951461792239286
20
43.499999045934402
10
84.951461792239257
20
43.499999045933265
10
84.951461792244942
20
13.499999045933272
10
90.95146179224497
20
13.499999045934407
10
90.95146179224875
20
-6.45000095406568
10
94.851461792248728
20
-6.4500009540649463
10
94.851461792248443
20
-4.950000954064949
10
98.951461792248452
20
-4.9500009540641718
10
98.951461792248736
20
-6.4500009540641701
10
102.95146179224872
20
-6.4500009540634125
10
102.95146179224965
20
-11.550000954063407
10
98.95146179224966
20
-11.550000954064165
10
98.951461792249972
20
-13.050000954064165
10
94.851461792249978
20
-13.05000095406494
10
94.851461792249694
20
-11.550000954064942
10
90.951461792249688
20
-11.550000954065677
10
90.951461792253468
20
-31.500000954064543
10
84.951461792253468
20
-31.50000095406568
10
84.951461792259153
20
-61.500000954065698
10
90.951461792259138
20
-61.500000954064561
10
90.951461792263402
20
-84.000000954065143
10
118.40146179226335
20
-84.000000954059971
10
118.40146179226259
20
-80.100000954059965
10
116.90146179226264
20
-80.100000954060249
10
116.90146179226187
20
-76.000000954060241
10
118.40146179226184
20
-76.000000954059956
10
118.40146179226109
20
-72.000000954059956
10
123.50146179226108
20
-72.00000095405899
10
123.50146179226185
20
-76.000000954059004
10
125.00146179226189
20
-76.00000095405872
0
LWPOLYLINE
5
101
100
AcDbEntity
8
0
100
AcDbPolyline
90
4
70
1
43
0.0
10
443.04852784550008
20
-57.75000095399853
10
449.04852784550008
20
-57.750000953997393
10
449.04852784550286
20
-72.750000953997386
10
443.04852784550286
20
-72.750000953998523
0
LWPOLYLINE
5
102
100
AcDbEntity
8
0
100
AcDbPolyline
90
4
70
1
43
0.0
10
443.04852784549297
20
-20.250000953998438
10
449.04852784549297
20
-20.250000953997301
10
449.04852784549576
20
-35.250000953997287
10
443.04852784549576
20
-35.250000953998423
0
CIRCLE
5
103
100
AcDbEntity
8
0
100
AcDbCircle
10
446.04852784549792
20
-46.500000953997862
30
0
40
2.5499999999999892
210
-2.5243548967072473e-29
220
5.1358131140228011e-31
230
1
0
LWPOLYLINE
5
104
100
AcDbEntity
8
0
100
AcDbPolyline
90
4
70
1
43
0.0
10
414.66868435710558
20
13.722988284883272
10
408.30472332642779
20
7.3590272542030739
10
384.76110944428228
20
30.902641136340122
10
391.12507047496018
20
37.26660216702021
0
LWPOLYLINE
5
105
100
AcDbEntity
8
0
100
AcDbPolyline
90
4
70
1
43
0.0
10
181.45146179224295
20
23.49999904595213
10
181.45146179224807
20
-3.5000009540479855
42
-0.99999999999999989
10
177.45146179224807
20
-3.500000954048708
10
177.4514617922429
20
23.499999045951366
42
-0.99999999999999989
0
LWPOLYLINE
5
106
100
AcDbEntity
8
0
100
AcDbPolyline
90
4
70
1
43
0.0
10
171.45146179226134
20
-73.500000954049924
10
171.45146179225611
20
-46.500000954049831
42
-0.99999999999999989
10
175.45146179225625
20
-46.500000954049064
10
175.45146179226134
20
-73.50000095404917
42
-0.99999999999999989
0
LWPOLYLINE
5
107
100
AcDbEntity
8
0
100
AcDbPolyline
90
8
70
1
43
0.0
10
294.4875238496009
20
18.472069360394951
42
0.13286644617509849
10
283.97204699564713
20
12.400955968104952
42
-0.38956564314693432
10
280.32278195698541
20
12.237263227156575
10
280.28763146610436
20
12.266757991090618
42
-0.43982564674186958
10
280.10954923510218
20
16.316718601981435
42
-0.13196769140259887
10
293.02762281374447
20
23.774971860025317
42
-0.43982564674193153
10
296.44595047160215
20
21.595767818570202
10
296.45391844100709
20
21.550579218545515
42
-0.38956564314698694
0
LWPOLYLINE
5
108
100
AcDbEntity
8
0
100
AcDbPolyline
90
8
70
1
43
0.0
10
296.45391844101658
20
-29.550581126598388
10
296.44595047161181
20
-29.595769726622507
42
-0.43982564674193403
10
293.02762281375487
20
-31.774973768078834
42
-0.13196769140259762
10
280.10954923510991
20
-24.316720510039971
42
-0.43982564674186098
10
280.28763146611038
20
-20.266759899149115
10
280.32278195699155
20
-20.237265135214912
42
-0.38956564314692899
10
283.97204699565339
20
-20.400957876161915
42
0.13286644617509893
10
294.48752384960937
20
-26.472071268448008
42
-0.38956564314705949
0
CIRCLE
5
109
100
AcDbEntity
8
0
100
AcDbCircle
10
295.95146179224719
20
0.49999904597371803
30
0
40
2.7499999999999991
210
-2.5243548967072473e-29
220
5.1358131140228011e-31
230
1
0
CIRCLE
5
110
100
AcDbEntity
8
0
100
AcDbCircle
10
304.95146179224884
20
-8.5000009540245802
30
0
40
2.7499999999999991
210
-2.5243548967072473e-29
220
5.1358131140228011e-31
230
1
0
LWPOLYLINE
5
111
100
AcDbEntity
8
0
100
AcDbPolyline
90
8
70
1
43
0.0
10
322.89481453148983
20
-10.071114346309296
42
0.13286644617509838
10
322.89481453148744
20
2.0711124382669017
42
-0.38956564314693604
10
324.5776849787419
20
5.3133150373646085
10
324.62080343902744
20
5.3290088734560097
42
-0.43982564674193814
10
328.21721332788707
20
3.4582523040210966
42
-0.13196769140259693
10
328.21721332788979
20
-11.458254212061386
42
-0.43982564674194125
10
324.62080343903119
20
-13.329010781497701
10
324.5776849787452
20
-13.313316945406271
42
-0.38956564314690401
0
CIRCLE
5
112
100
AcDbEntity
8
0
100
AcDbCircle
10
304.95146179224713
20
0.49999904597541889
30
0
40
2.7499999999999991
210
-2.5243548967072473e-29
220
5.1358131140228011e-31
230
1
0
CIRCLE
5
113
100
AcDbEntity
8
0
100
AcDbCircle
10
295.95146179224889
20
-8.5000009540262838
30
0
40
2.7499999999999991
210
-2.5243548967072473e-29
220
5.1358131140228011e-31
230
1
0
LWPOLYLINE
5
114
100
AcDbEntity
8
0
100
AcDbPolyline
90
8
70
1
43
0.0
10
289.38343427557265
20
-17.968224423390371
10
289.31866995714063
20
-18.045407532553714
42
-0.45047149040912671
10
285.27566841251246
20
-18.151248082655925
42
-0.11392830440525656
10
280.60822559375686
20
-10.066999979152387
42
-0.45047149040915713
10
282.72138697120903
20
-6.618578209014955
10
282.82061166370329
20
-6.601082218575705
42
-0.37866641201958512
10
285.87093250284062
20
-8.4688560244804858
42
0.11358180445304501
10
289.29105513070328
20
-14.392682184051926
42
-0.37866641201960111
0
LWPOLYLINE
5
115
100
AcDbEntity
8
0
100
AcDbPolyline
90
4
70
1
43
0.0
10
193.4514617922562
20
-46.50000095404566
10
193.4514617922614
20
-73.50000095404576
42
-0.99999999999999989
10
189.45146179226128
20
-73.500000954046513
10
189.4514617922562
20
-46.500000954046428
42
-0.99999999999999989
0
LWPOLYLINE
5
116
100
AcDbEntity
8
0
100
AcDbPolyline
90
4
70
1
43
0.0
10
165.45146179226134
20
-73.50000095405106
10
165.45146179225611
20
-46.500000954050968
42
-0.99999999999999989
10
169.45146179225623
20
-46.500000954050201
10
169.45146179226131
20
-73.500000954050307
42
-0.99999999999999989
0
LWPOLYLINE
5
117
100
AcDbEntity
8
0
100
AcDbPolyline
90
4
70
1
43
0.0
10
175.45146179224298
20
23.499999045950993
10
175.4514617922481
20
-3.5000009540491224
42
-0.99999999999999989
10
171.4514617922481
20
-3.5000009540498449
10
171.45146179224298
20
23.499999045950247
42
-0.99999999999999989
0
LWPOLYLINE
5
118
100
AcDbEntity
8
0
100
AcDbPolyline
90
4
70
1
43
0.0
10
187.45146179224295
20
23.499999045953267
10
187.45146179224804
20
-3.5000009540468131
42
-0.99999999999999989
10
183.45146179224804
20
-3.5000009540475756
10
183.4514617922429
20
23.499999045952503
42
-0.99999999999999989
0
LWPOLYLINE
5
119
100
AcDbEntity
8
0
100
AcDbPolyline
90
4
70
1
43
0.0
10
177.45146179226134
20
-73.500000954048787
10
177.45146179225617
20
-46.500000954048694
42
-0.99999999999999989
10
181.45146179225623
20
-46.500000954047927
10
181.45146179226131
20
-73.500000954048076
42
-0.99999999999999989
0
LWPOLYLINE
5
120
100
AcDbEntity
8
0
100
AcDbPolyline
90
8
70
1
43
0.0
10
276.32523860575429
20
-13.313316945415396
10
276.28212014546841
20
-13.329010781506771
42
-0.43982564674193958
10
272.68571025660913
20
-11.458254212071965
42
-0.13196769140259806
10
272.68571025660623
20
3.4582523040106121
42
-0.43982564674196079
10
276.28212014546523
20
5.3290088734466989
10
276.32523860575043
20
5.3133150373554354
42
-0.38956564314693692
10
278.00810905300631
20
2.0711124382585346
42
0.13286644617509974
10
278.00810905300858
20
-10.071114346317778
42
-0.38956564314692338
0
LWPOLYLINE
5
121
100
AcDbEntity
8
0
100
AcDbPolyline
90
8
70
1
43
0.0
10
320.5801416275105
20
-20.237265135207139
10
320.61529211839161
20
-20.266759899141089
42
-0.43982564674190811
10
320.79337434939384
20
-24.316720510032308
42
-0.13196769140259842
10
307.87530077075161
20
-31.774973768076073
42
-0.43982564674198066
10
304.45697311289382
20
-29.595769726620453
10
304.44900514348905
20
-29.550581126595862
42
-0.38956564314693626
10
306.41539973489512
20
-26.472071268445792
42
0.13286644617509893
10
316.93087658884883
20
-20.400957876155662
42
-0.3895656431469276
0
LWPOLYLINE
5
122
100
AcDbEntity
8
0
100
AcDbPolyline
90
8
70
1
43
0.0
10
303.87158442010679
20
10.861535346452101
42
0.11358180445304512
10
297.03133916438372
20
10.861535346450724
42
-0.3786664120195869
10
293.88863918037771
20
12.569303779883123
10
293.85417880631519
20
12.66398287948582
42
-0.45047149040911871
10
295.78401897349022
20
16.218245199724549
42
-0.1139283044052561
10
305.11890461099819
20
16.218245199726397
42
-0.45047149040912793
10
307.04874477817452
20
12.663982879488225
10
307.01428440411223
20
12.569303779885885
42
-0.37866641201960938
0
LWPOLYLINE
5
123
100
AcDbEntity
8
0
100
AcDbPolyline
90
8
70
1
43
0.0
10
311.61186845379677
20
-14.392682184047862
42
0.11358180445304562
10
315.03199108165711
20
-8.468856024475004
42
-0.37866641201958667
10
318.0823119207937
20
-6.6010822185690285
10
318.18153661328819
20
-6.6185782090082785
42
-0.45047149040911832
10
320.29469799074144
20
-10.066999979144871
42
-0.11392830440525711
10
315.62725517198896
20
-18.15124808265027
42
-0.45047149040912093
10
311.58425362736074
20
-18.045407532549419
10
311.51948930892888
20
-17.968224423386342
42
-0.37866641201959433
0
LWPOLYLINE
5
124
100
AcDbEntity
8
0
100
AcDbPolyline
90
8
70
1
43
0.0
10
315.03199108165541
20
0.46885411642972497
42
0.11358180445304383
10
311.61186845379279
20
6.3926802760011405
42
-0.37866641201958773
10
311.51948930892343
20
9.9682225153394572
10
311.58425362735534
20
10.045405624502665
42
-0.45047149040913809
10
315.62725517198362
20
10.151246174605077
42
-0.11392830440525553
10
320.29469799073917
20
2.0669980711016285
42
-0.45047149040914375
10
318.18153661328734
20
-1.3814236990358655
10
318.08231192079245
20
-1.3989196894752025
42
-0.37866641201957008
0
LWPOLYLINE
5
125
100
AcDbEntity
8
0
100
AcDbPolyline
90
8
70
1
43
0.0
10
316.93087658884258
20
12.400955968111152
42
0.13286644617509771
10
306.41539973488665
20
18.472069360397349
42
-0.38956564314691594
10
304.44900514347933
20
21.550579218546531
10
304.45697311288416
20
21.59576781857162
42
-0.43982564674194341
10
307.87530077074109
20
23.774971860027946
42
-0.13196769140259737
10
320.79337434938617
20
16.31671860198923
42
-0.43982564674193175
10
320.61529211838524
20
12.266757991097876
10
320.58014162750385
20
12.237263227163528
42
-0.38956564314685982
0
LWPOLYLINE
5
126
100
AcDbEntity
8
0
100
AcDbPolyline
90
8
70
1
43
0.0
10
307.01428440411826
20
-20.569305687933841
10
307.04874477818078
20
-20.663984787536585
42
-0.45047149040911583
10
305.1189046110058
20
-24.218247107775422
42
-0.11392830440525667
10
295.78401897349778
20
-24.218247107777163
42
-0.45047149040911688
10
293.8541788063215
20
-20.663984787538983
10
293.88863918038402
20
-20.569305687936424
42
-0.37866641201958351
10
297.03133916438935
20
-18.861537254502867
42
0.11358180445304589
10
303.87158442011241
20
-18.861537254501556
42
-0.37866641201957052
0
LWPOLYLINE
5
127
100
AcDbEntity
8
0
100
AcDbPolyline
90
8
70
1
43
0.0
10
282.8206116637021
20
-1.3989196894817724
10
282.72138697120772
20
-1.3814236990425941
42
-0.45047149040913037
10
280.60822559375464
20
2.0669980710940985
42
-0.1139283044052561
10
285.27566841250712
20
10.151246174599359
42
-0.45047149040913859
10
289.3186699571354
20
10.045405624498516
10
289.38343427556737
20
9.9682225153352473
42
-0.37866641201958445
10
289.29105513069931
20
6.3926802759969625
42
0.11358180445304383
10
285.87093250283897
20
0.46885411642420716
42
-0.37866641201963397
0
LWPOLYLINE
5
128
100
AcDbEntity
8
0
100
AcDbPolyline
90
4
70
1
43
0.0
10
187.45146179225617
20
-46.500000954046797
10
187.45146179226134
20
-73.500000954046897
42
-0.99999999999999989
10
183.45146179226134
20
-73.50000095404765
10
183.45146179225625
20
-46.50000095404755
42
-0.99999999999999989
0
LWPOLYLINE
5
129
100
AcDbEntity
8
0
100
AcDbPolyline
90
4
70
1
43
0.0
10
193.45146179224298
20
23.499999045954404
10
193.4514617922481
20
-3.5000009540456851
42
-0.99999999999999989
10
189.45146179224804
20
-3.5000009540464387
10
189.45146179224292
20
23.49999904595364
42
-0.99999999999999989
0
LWPOLYLINE
5
130
100
AcDbEntity
8
0
100
AcDbPolyline
90
4
70
1
43
0.0
10
169.45146179224298
20
23.499999045949856
10
169.45146179224807
20
-3.5000009540502592
42
-0.99999999999999989
10
165.4514617922481
20
-3.5000009540509818
10
165.45146179224292
20
23.49999904594911
42
-0.99999999999999989
0
ENDSEC
0
SECTION
2
OBJECTS
0
DICTIONARY
5
C
100
AcDbDictionary
3
ACAD_GROUP
350
D
3
ACAD_MLINESTYLE
350
17
0
DICTIONARY
5
D
100
AcDbDictionary
0
DICTIONARY
5
1A
330
C
100
AcDbDictionary
0
DICTIONARY
5
17
100
AcDbDictionary
0
ENDSEC
0
EOF
