0
SECTION
2
HEADER
9
$INSUNITS
70
4
9
$ACADVER
1
AC1014
9
$HANDSEED
5
FFFF
0
ENDSEC
0
SECTION
2
TABLES
0
TABLE
2
VPORT
5
8
100
AcDbSymbolTable
0
ENDTAB
0
TABLE
2
LTYPE
5
5
100
AcDbSymbolTable
0
LTYPE
5
14
100
AcDbSymbolTableRecord
100
AcDbLinetypeTableRecord
2
BYBLOCK
70
0
0
LTYPE
5
15
100
AcDbSymbolTableRecord
100
AcDbLinetypeTableRecord
2
BYLAYER
70
0
0
ENDTAB
0
TABLE
2
LAYER
5
2
100
AcDbSymbolTable
70
2
0
LAYER
5
50
100
AcDbSymbolTableRecord
100
AcDbLayerTableRecord
2
0
70
0
6
CONTINUOUS
0
ENDTAB
0
TABLE
2
STYLE
5
3
100
AcDbSymbolTable
70
1
0
STYLE
5
11
100
AcDbSymbolTableRecord
100
AcDbTextStyleTableRecord
2
STANDARD
70
0
0
ENDTAB
0
TABLE
2
VIEW
5
6
100
AcDbSymbolTable
70
0
0
ENDTAB
0
TABLE
2
UCS
5
7
100
AcDbSymbolTable
70
0
0
ENDTAB
0
TABLE
2
APPID
5
9
100
AcDbSymbolTable
70
2
0
APPID
5
12
100
AcDbSymbolTableRecord
100
AcDbRegAppTableRecord
2
ACAD
70
0
0
ENDTAB
0
TABLE
2
DIMSTYLE
5
A
100
AcDbSymbolTable
70
1
0
ENDTAB
0
TABLE
2
BLOCK_RECORD
5
1
100
AcDbSymbolTable
70
1
0
BLOCK_RECORD
5
1F
100
AcDbSymbolTableRecord
100
AcDbBlockTableRecord
2
*MODEL_SPACE
0
BLOCK_RECORD
5
1B
100
AcDbSymbolTableRecord
100
AcDbBlockTableRecord
2
*PAPER_SPACE
0
ENDTAB
0
ENDSEC
0
SECTION
2
BLOCKS
0
BLOCK
5
20
100
AcDbEntity
100
AcDbBlockBegin
2
*MODEL_SPACE
0
ENDBLK
5
21
100
AcDbEntity
100
AcDbBlockEnd
0
BLOCK
5
1C
100
AcDbEntity
100
AcDbBlockBegin
2
*PAPER_SPACE
0
ENDBLK
5
1D
100
AcDbEntity
100
AcDbBlockEnd
0
ENDSEC
0
SECTION
2
ENTITIES
0
CIRCLE
5
100
100
AcDbEntity
8
0
100
AcDbCircle
10
-196.10000000000028
20
316.4997649596786
30
8.8817841970012523e-15
40
1.6000000000000014
210
-1.5777218104292578e-30
220
4.3390681514810102e-60
230
1
0
CIRCLE
5
101
100
AcDbEntity
8
0
100
AcDbCircle
10
-207.10000000000036
20
58.499764959678693
30
0
40
1.6000000000000014
210
-1.5777218104293049e-30
220
2.2388004952199358e-60
230
1
0
CIRCLE
5
102
100
AcDbEntity
8
0
100
AcDbCircle
10
-207.10000000000031
20
316.4997649596786
30
0
40
1.6000000000000014
210
-1.5777218104292578e-30
220
4.3390681514810102e-60
230
1
0
CIRCLE
5
103
100
AcDbEntity
8
0
100
AcDbCircle
10
-196.10000000000036
20
58.499764959678693
30
0
40
1.6000000000000014
210
-1.5777218104293049e-30
220
2.2388004952199358e-60
230
1
0
LWPOLYLINE
5
104
100
AcDbEntity
8
0
100
AcDbPolyline
90
6
70
1
43
0.0
10
-204.10000000000051
20
323.49976495967866
10
-204.10000000000028
20
325.49976495967871
10
-200.90000000000029
20
325.49976495967871
10
-200.90000000000029
20
331.79976495967867
10
-199.10000000000028
20
331.79976495967867
10
-199.10000000000028
20
323.49976495967866
0
LWPOLYLINE
5
105
100
AcDbEntity
8
0
100
AcDbPolyline
90
6
70
1
43
0.0
10
-200.90000000000035
20
43.199764959678681
10
-200.90000000000035
20
49.499764959678636
10
-204.10000000000036
20
49.499764959678636
10
-204.10000000000053
20
51.499764959678664
10
-199.10000000000031
20
51.499764959678735
10
-199.10000000000036
20
43.199764959678681
0
CIRCLE
5
106
100
AcDbEntity
8
0
100
AcDbCircle
10
-324.84999999999991
20
269.99976495967877
30
8.8817841970012523e-15
40
3.5999999999999943
210
1.1588039409579686e-30
220
-1.9297962244168619e-46
230
1
0
CIRCLE
5
107
100
AcDbEntity
8
0
100
AcDbCircle
10
-174.90000000000035
20
27.499764959678625
30
0
40
1.6000000000000014
210
-1.996639679926078e-30
220
3.3250730168012052e-46
230
1
0
CIRCLE
5
108
100
AcDbEntity
8
0
100
AcDbCircle
10
-285.15000000000066
20
269.99976495967792
30
8.8817841970012523e-15
40
2.5999999999999801
210
1.1588039409579693e-30
220
-1.9297962244168635e-46
230
1
0
CIRCLE
5
109
100
AcDbEntity
8
0
100
AcDbCircle
10
-185.40000000000026
20
347.49976495967866
30
-8.8817841970012523e-15
40
1.6000000000000014
210
-1.996639679926078e-30
220
3.3250730168012052e-46
230
1
0
CIRCLE
5
110
100
AcDbEntity
8
0
100
AcDbCircle
10
-324.85000000000002
20
104.9997649596786
30
0
40
3.5999999999999943
210
1.1588039409579686e-30
220
-1.9297962244168619e-46
230
1
0
CIRCLE
5
111
100
AcDbEntity
8
0
100
AcDbCircle
10
-114.8500000000007
20
187.49976495967849
30
0
40
2.5999999999999979
210
-4.1891786948405434e-31
220
6.9763839619217055e-47
230
1
0
CIRCLE
5
112
100
AcDbEntity
8
0
100
AcDbCircle
10
-75.150000000000631
20
269.99976495967866
30
8.8817841970012523e-15
40
3.5999999999999943
210
1.1588039409579686e-30
220
-1.9297962244168619e-46
230
1
0
CIRCLE
5
113
100
AcDbEntity
8
0
100
AcDbCircle
10
-285.14999999999992
20
187.49976495967849
30
0
40
2.6000000000000156
210
-4.1891786948405434e-31
220
6.9763839619217055e-47
230
1
0
CIRCLE
5
114
100
AcDbEntity
8
0
100
AcDbCircle
10
-75.150000000000588
20
187.49976495967854
30
0
40
3.6000000000000121
210
-4.1891786948405504e-31
220
6.9763839619217162e-47
230
1
0
CIRCLE
5
115
100
AcDbEntity
8
0
100
AcDbCircle
10
-360.00000000000034
20
27.499764959678643
30
0
40
1.5999999999999659
210
-4.1891786948405434e-31
220
6.9763839619217065e-47
230
1
0
CIRCLE
5
116
100
AcDbEntity
8
0
100
AcDbCircle
10
-285.14999999999992
20
104.99976495967857
30
0
40
2.5999999999999801
210
1.1588039409579693e-30
220
-1.9297962244168635e-46
230
1
0
CIRCLE
5
117
100
AcDbEntity
8
0
100
AcDbCircle
10
-40.00000000000032
20
27.49976495967859
30
0
40
1.6000000000000014
210
-1.996639679926078e-30
220
3.3250730168012052e-46
230
1
0
CIRCLE
5
118
100
AcDbEntity
8
0
100
AcDbCircle
10
-40.00000000000027
20
347.49976495967866
30
0
40
1.6000000000000014
210
-1.996639679926078e-30
220
3.3250730168012052e-46
230
1
0
CIRCLE
5
119
100
AcDbEntity
8
0
100
AcDbCircle
10
-114.84999999999991
20
269.9997649596778
30
8.8817841970012523e-15
40
2.5999999999999979
210
-4.1891786948405434e-31
220
6.9763839619217055e-47
230
1
0
CIRCLE
5
120
100
AcDbEntity
8
0
100
AcDbCircle
10
-360.00000000000028
20
347.49976495967871
30
0
40
1.5999999999999659
210
-4.1891786948405434e-31
220
6.9763839619217065e-47
230
1
0
CIRCLE
5
121
100
AcDbEntity
8
0
100
AcDbCircle
10
-75.150000000000631
20
104.99976495967854
30
0
40
3.5999999999999943
210
1.1588039409579686e-30
220
-1.9297962244168619e-46
230
1
0
CIRCLE
5
122
100
AcDbEntity
8
0
100
AcDbCircle
10
-324.85000000000002
20
187.4997649596786
30
8.8817841970012523e-15
40
3.5999999999999943
210
1.1588039409579686e-30
220
-1.9297962244168619e-46
230
1
0
CIRCLE
5
123
100
AcDbEntity
8
0
100
AcDbCircle
10
-114.8500000000007
20
104.99976495967857
30
0
40
2.5999999999999979
210
-4.1891786948405434e-31
220
6.9763839619217055e-47
230
1
0
LWPOLYLINE
5
124
100
AcDbEntity
8
0
100
AcDbPolyline
90
4
70
1
43
0.0
10
-35.000000000000334
20
22.499764959678608
10
-35.000000000000277
20
352.4997649596786
10
-365.00000000000028
20
352.49976495967871
10
-365.00000000000034
20
22.499764959678714
0
ENDSEC
0
SECTION
2
OBJECTS
0
DICTIONARY
5
C
100
AcDbDictionary
3
ACAD_GROUP
350
D
3
ACAD_MLINESTYLE
350
17
0
DICTIONARY
5
D
100
AcDbDictionary
0
DICTIONARY
5
1A
330
C
100
AcDbDictionary
0
DICTIONARY
5
17
100
AcDbDictionary
0
ENDSEC
0
EOF
