0
SECTION
2
HEADER
9
$INSUNITS
70
4
9
$ACADVER
1
AC1014
9
$HANDSEED
5
FFFF
0
ENDSEC
0
SECTION
2
TABLES
0
TABLE
2
VPORT
5
8
100
AcDbSymbolTable
0
ENDTAB
0
TABLE
2
LTYPE
5
5
100
AcDbSymbolTable
0
LTYPE
5
14
100
AcDbSymbolTableRecord
100
AcDbLinetypeTableRecord
2
BYBLOCK
70
0
0
LTYPE
5
15
100
AcDbSymbolTableRecord
100
AcDbLinetypeTableRecord
2
BYLAYER
70
0
0
ENDTAB
0
TABLE
2
LAYER
5
2
100
AcDbSymbolTable
70
2
0
LAYER
5
50
100
AcDbSymbolTableRecord
100
AcDbLayerTableRecord
2
0
70
0
6
CONTINUOUS
0
ENDTAB
0
TABLE
2
STYLE
5
3
100
AcDbSymbolTable
70
1
0
STYLE
5
11
100
AcDbSymbolTableRecord
100
AcDbTextStyleTableRecord
2
STANDARD
70
0
0
ENDTAB
0
TABLE
2
VIEW
5
6
100
AcDbSymbolTable
70
0
0
ENDTAB
0
TABLE
2
UCS
5
7
100
AcDbSymbolTable
70
0
0
ENDTAB
0
TABLE
2
APPID
5
9
100
AcDbSymbolTable
70
2
0
APPID
5
12
100
AcDbSymbolTableRecord
100
AcDbRegAppTableRecord
2
ACAD
70
0
0
ENDTAB
0
TABLE
2
DIMSTYLE
5
A
100
AcDbSymbolTable
70
1
0
ENDTAB
0
TABLE
2
BLOCK_RECORD
5
1
100
AcDbSymbolTable
70
1
0
BLOCK_RECORD
5
1F
100
AcDbSymbolTableRecord
100
AcDbBlockTableRecord
2
*MODEL_SPACE
0
BLOCK_RECORD
5
1B
100
AcDbSymbolTableRecord
100
AcDbBlockTableRecord
2
*PAPER_SPACE
0
ENDTAB
0
ENDSEC
0
SECTION
2
BLOCKS
0
BLOCK
5
20
100
AcDbEntity
100
AcDbBlockBegin
2
*MODEL_SPACE
0
ENDBLK
5
21
100
AcDbEntity
100
AcDbBlockEnd
0
BLOCK
5
1C
100
AcDbEntity
100
AcDbBlockBegin
2
*PAPER_SPACE
0
ENDBLK
5
1D
100
AcDbEntity
100
AcDbBlockEnd
0
ENDSEC
0
SECTION
2
ENTITIES
0
LWPOLYLINE
5
100
100
AcDbEntity
8
0
100
AcDbPolyline
90
18
70
1
43
0.0
10
54.999542236317893
20
292.49999999999852
42
0.41421356237309709
10
47.499542236317893
20
299.99999999999852
10
-31.427517602422199
20
299.99999999999852
42
0.22602700378085458
10
-37.251621323619936
20
297.22544345482163
10
-54.717449188172225
20
275.69883033752257
10
-71.089022088172271
20
275.69883033752257
42
0.19891236737954082
10
-72.291103616188877
20
275.20091186554021
10
-74.919530702122188
20
272.57248475147355
42
0.19891236737977702
10
-75.417449168279731
20
271.37040323752251
10
-75.417449188172441
20
238.62725743752259
42
0.19891236738040788
10
-74.919530716185847
20
237.42517590950206
10
-72.291103602122178
20
234.79674882357256
42
0.19891236737964649
10
-71.089022088172271
20
234.29883035741511
10
-54.717449188172225
20
234.29883033752253
10
-37.251615456042373
20
212.77428222450357
42
0.22601462677070377
10
-31.427734318312162
20
209.99999999999858
10
47.499542236317893
20
209.99999999999855
42
0.41421356237309709
10
54.999542236317907
20
217.49999999999858
0
CIRCLE
5
101
100
AcDbEntity
8
0
100
AcDbCircle
10
-20.000457763682107
20
254.99999999999852
30
0
40
2.7500000000000604
210
-0
220
0
230
1
0
CIRCLE
5
102
100
AcDbEntity
8
0
100
AcDbCircle
10
39.999542236317893
20
254.99999999999852
30
0
40
2.7500000000000604
210
-0
220
0
230
1
0
CIRCLE
5
103
100
AcDbEntity
8
0
100
AcDbCircle
10
39.999542236317893
20
287.49999999999852
30
0
40
3.59999999999985
210
3.5579843820762384e-46
220
1.5777218104420236e-30
230
1
0
CIRCLE
5
104
100
AcDbEntity
8
0
100
AcDbCircle
10
39.999542236317893
20
222.4999999999975
30
0
40
3.59999999999985
210
3.5579843820762384e-46
220
1.5777218104420236e-30
230
1
0
CIRCLE
5
105
100
AcDbEntity
8
0
100
AcDbCircle
10
-39.217449188172395
20
239.49883033752255
30
0
40
1.5250000000000299
210
-0
220
0
230
1
0
CIRCLE
5
106
100
AcDbEntity
8
0
100
AcDbCircle
10
-20.000457763682107
20
287.49999999999852
30
0
40
2.5999999999999099
210
3.5579843820762384e-46
220
1.5777218104420236e-30
230
1
0
CIRCLE
5
107
100
AcDbEntity
8
0
100
AcDbCircle
10
-70.217449188172338
20
270.49883033752252
30
0
40
1.5250000000000299
210
-0
220
0
230
1
0
CIRCLE
5
108
100
AcDbEntity
8
0
100
AcDbCircle
10
-54.717449188172225
20
254.99883033752255
30
0
40
12.3517541000001
210
-0
220
0
230
1
0
CIRCLE
5
109
100
AcDbEntity
8
0
100
AcDbCircle
10
-20.000457763682107
20
222.49999999999756
30
0
40
2.5999999999999099
210
3.5579843820762384e-46
220
1.5777218104420236e-30
230
1
0
CIRCLE
5
110
100
AcDbEntity
8
0
100
AcDbCircle
10
-39.217449188172395
20
270.49883033752252
30
0
40
1.5250000000000299
210
-0
220
0
230
1
0
CIRCLE
5
111
100
AcDbEntity
8
0
100
AcDbCircle
10
-70.217449188172338
20
239.49883033752258
30
0
40
1.5250000000000299
210
-0
220
0
230
1
0
CIRCLE
5
112
100
AcDbEntity
8
0
100
AcDbCircle
10
9.9995422363178932
20
254.99999999999852
30
0
40
2.74999999999977
210
3.5579843820762384e-46
220
1.5777218104420236e-30
230
1
0
ENDSEC
0
SECTION
2
OBJECTS
0
DICTIONARY
5
C
100
AcDbDictionary
3
ACAD_GROUP
350
D
3
ACAD_MLINESTYLE
350
17
0
DICTIONARY
5
D
100
AcDbDictionary
0
DICTIONARY
5
1A
330
C
100
AcDbDictionary
0
DICTIONARY
5
17
100
AcDbDictionary
0
ENDSEC
0
EOF
